<?xml version="1.0" encoding="UTF-8" standalone="no"?>
<svg width="32px" xmlns="http://www.w3.org/2000/svg" xmlns:xlink="http://www.w3.org/1999/xlink" height="28px">
 <path fill="#95e1d3" d="m30 23h-7.5-2v2.499l2 2.001v0.5h-13v-0.5l2-2.001v-2.499h-2-7.5c-0.828 0-1.5-0.672-1.5-1.501v-19.999c0-0.829 0.672-1.5 1.5-1.5h28c0.828 0 1.5 0.671 1.5 1.5v19.999c0 0.829-0.672 1.501-1.5 1.501zm-0.5-21h-27v17h27v-17zm-16.5 7c0.414 0 0.789 0.168 1.061 0.439l0.939 0.939 2.939-2.939c0.272-0.272 0.647-0.439 1.061-0.439 0.828 0 1.5 0.671 1.5 1.5 0 0.414-0.168 0.789-0.439 1.061l-4 4c-0.272 0.271-0.647 0.439-1.061 0.439s-0.789-0.168-1.061-0.439l-2-2.001c-0.271-0.271-0.439-0.646-0.439-1.06 0-0.829 0.672-1.5 1.5-1.5z" fill-rule="evenodd"/>
</svg>
