<?xml version="1.0" encoding="UTF-8" standalone="no"?>
<svg width="32px" xmlns="http://www.w3.org/2000/svg" xmlns:xlink="http://www.w3.org/1999/xlink" height="31px">
 <path fill="#95e1d3" d="m30.74 9.503c-1.584-3.696-4.547-6.66-8.243-8.243 1-0.787 2.258-1.26 3.629-1.26 3.244 0 5.874 2.63 5.874 5.874 0 1.371-0.473 2.629-1.26 3.629zm-0.24 6.497c0 3.852-1.512 7.343-3.963 9.94l2.029 2.028c0.268 0.269 0.434 0.639 0.434 1.049 0 0.819-0.664 1.483-1.483 1.483-0.41 0-0.781-0.166-1.049-0.435l-2.178-2.178c-2.351 1.642-5.205 2.613-8.29 2.613-3.079 0-5.928-0.966-8.276-2.603l-2.163 2.163c-0.272 0.272-0.647 0.44-1.061 0.44-0.828 0-1.5-0.672-1.5-1.501 0-0.413 0.168-0.789 0.439-1.06l2.012-2.012c-2.443-2.595-3.951-6.082-3.951-9.927 0-8.008 6.492-14.5 14.5-14.5s14.5 6.492 14.5 14.5zm-14.5-11.5c-6.351 0-11.5 5.148-11.5 11.5 0 6.351 5.149 11.5 11.5 11.5s11.5-5.149 11.5-11.5c0-6.352-5.149-11.5-11.5-11.5zm6 13h-6c-0.828 0-1.5-0.672-1.5-1.5v-8c0-0.828 0.672-1.5 1.5-1.5s1.5 0.672 1.5 1.5v6.499h4.5c0.828 0 1.5 0.672 1.5 1.501 0 0.828-0.672 1.5-1.5 1.5zm-20.713-7.795c-0.804-1.02-1.287-2.305-1.287-3.705 0-3.314 2.686-6 6-6 1.4 0 2.685 0.483 3.706 1.287-3.775 1.617-6.802 4.644-8.419 8.418z" fill-rule="evenodd"/>
</svg>
