<?xml version="1.0" encoding="UTF-8" standalone="no"?>
<svg width="32px" xmlns="http://www.w3.org/2000/svg" xmlns:xlink="http://www.w3.org/1999/xlink" height="32px">
 <path fill="#95e1d3" d="m30.5 32h-29c-0.829 0-1.5-0.672-1.5-1.5v-29c0-0.829 0.671-1.5 1.5-1.5h29c0.828 0 1.5 0.671 1.5 1.5v29c0 0.828-0.672 1.5-1.5 1.5zm-1.5-29h-26v26h26v-26zm-22.5 1.5h5.5c0.828 0 1.5 0.671 1.5 1.5 0 0.828-0.672 1.5-1.5 1.5h-4.5v4.5c0 0.828-0.672 1.5-1.5 1.5s-1.5-0.672-1.5-1.5v-5.5-2h2zm-2 15.5c0-0.829 0.672-1.501 1.5-1.501s1.5 0.672 1.5 1.501v4.499h4.5v0.001c0.828 0 1.5 0.671 1.5 1.5 0 0.828-0.672 1.5-1.5 1.5h-5.5-2v-2-5.5zm15.5-15.5h5.5 2v2 5.5c0 0.828-0.672 1.5-1.5 1.5s-1.5-0.672-1.5-1.5v-4.5h-4.5c-0.828 0-1.5-0.672-1.5-1.5 0-0.829 0.672-1.5 1.5-1.5zm0 20v-0.001h4.5v-4.499c0-0.829 0.672-1.501 1.5-1.501s1.5 0.672 1.5 1.501v5.5 2h-2-5.5c-0.828 0-1.5-0.672-1.5-1.5 0-0.829 0.672-1.5 1.5-1.5z" fill-rule="evenodd"/>
</svg>
