<?xml version="1.0" encoding="UTF-8" standalone="no"?>
<svg width="32px" xmlns="http://www.w3.org/2000/svg" xmlns:xlink="http://www.w3.org/1999/xlink" height="31px">
 <path fill="#95e1d3" d="m32 16.5c0 0.828-0.672 1.499-1.5 1.499-0.395 0-0.752-0.155-1.02-0.405l-0.003 0.004-13.439-13.439-0.038-0.037-13.446 13.446h-0.001c-0.271 0.267-0.643 0.431-1.053 0.431-0.828 0-1.5-0.671-1.5-1.499 0-0.425 0.177-0.808 0.461-1.081l14.458-14.459c0.273-0.283 0.656-0.46 1.081-0.46h0.001c0.026 0 0.052 0 0.079 0.002 0.004 0 0.008 0.001 0.012 0.001 0.023 0.001 0.045 0.003 0.068 0.005 0.001 0 0.002 0 0.004 0.001 0.367 0.04 0.694 0.212 0.933 0.468l0.001-0.001 5.902 5.902v-1.378c0-0.829 0.671-1.5 1.5-1.5 0.828 0 1.5 0.671 1.5 1.5v4.378l5.598 5.598-0.004 0.004c0.25 0.268 0.406 0.625 0.406 1.02zm-3 2.5v4.5 2 4c0 0.828-0.672 1.5-1.5 1.5h-3v-12h-6v12h-14c-0.828 0-1.5-0.672-1.5-1.5v-4-2-4.5l13-13 13 13zm-15.5 0h-6v6h6v-6z" fill-rule="evenodd"/>
</svg>
